<svg xmlns="http://www.w3.org/2000/svg"  viewBox="0 0 64 64" width="256px" height="256px"><path fill="#c5e4fa" d="M61 49L8 49 7 15 61 15 61 49z"/><path fill="#e3f2ff" d="M61 29.57L41.57 49 59.79 49 61 47.79 61 29.57zM61 17.43L29.43 49 36.71 49 61 24.71 61 17.43zM52.5 15L18.5 49 24.57 49 58.57 15 52.5 15z"/><rect width="58" height="6" x="5" y="9" fill="#acb7d0" rx="2" ry="2"/><path fill="#fff" d="M39.5 19L40.74 21.26 43 22.5 40.74 23.74 39.5 26 38.26 23.74 36 22.5 38.26 21.26 39.5 19zM54.42 25L55.27 26.56 56.84 27.42 55.27 28.27 54.42 29.84 53.56 28.27 52 27.42 53.56 26.56 54.42 25zM46.42 35L46.92 35.92 47.84 36.42 46.92 36.92 46.42 37.84 45.92 36.92 45 36.42 45.92 35.92 46.42 35z"/><path fill="#ed7899" d="M35.51,34a1,1,0,0,1,1,1v1.56C36.5,46.39,30,53,20.25,53a16.94,16.94,0,1,1,0-33.88,17.44,17.44,0,0,1,10.45,3.46,1,1,0,0,1,.17,1.48L27.8,27.53a1,1,0,0,1-1.3.17,10.68,10.68,0,0,0-6.25-2,10.38,10.38,0,1,0,0,20.75c4.87,0,8.07-2.3,9.16-6.44H22a1,1,0,0,1-1-1V35a1,1,0,0,1,1-1Z"/><path fill="#f9e3ae" d="M35.51,34a1,1,0,0,1,1,1v1.56C36.5,46.39,30,53,20.25,53A17.11,17.11,0,0,1,3,36.06c0-3.76,1.69-7,3.38-10.06.07-.14,4.76,3.77,4.62,4a10.9,10.9,0,0,0-1.32,6.06A10.48,10.48,0,0,0,20.25,46.44c4.87,0,8.07-2.3,9.16-6.44H22a1,1,0,0,1-1-1V35a1,1,0,0,1,1-1Z"/><path fill="#72caaf" d="M35.51,34a1,1,0,0,1,1,1v1.56C36.5,46.39,30,53,20.25,53A17.31,17.31,0,0,1,5,44c-.63-1.16,1.07-1.23,2.5-2.08s2.71-2.51,3-1.89a10.58,10.58,0,0,0,9.77,6.44c4.87,0,8.07-2.3,9.16-6.44H22a1,1,0,0,1-1-1V35a1,1,0,0,1,1-1Z"/><path fill="#85cbf8" d="M35.51,34a1,1,0,0,1,1,1v1.56a16.67,16.67,0,0,1-4.18,11.59c-1.43,1.54-1.8-.31-3-1.52s-3.09-1.79-2.28-2.56A8.47,8.47,0,0,0,29.41,40H22a1,1,0,0,1-1-1V35a1,1,0,0,1,1-1Z"/><path fill="#8d6c9f" d="M61,8H39.61l-1-1.9A3,3,0,0,0,36,4.47h0a3,3,0,0,0-2.66,1.69L32.37,8H7a3,3,0,0,0-3,3v2a3,3,0,0,0,2,2.83v9.05A17.65,17.65,0,0,0,2,36.06,18.12,18.12,0,0,0,20.25,54a17.82,17.82,0,0,0,10.56-3.18L24.13,62.5a1,1,0,1,0,1.74,1L33.58,50H34v7a1,1,0,0,0,2,0V50h.42l7.71,13.5a1,1,0,0,0,1.74-1L38.72,50H59a3,3,0,0,0,3-3V15.83A3,3,0,0,0,64,13V11A3,3,0,0,0,61,8ZM35.07,7A1,1,0,0,1,36,6.47h0a1,1,0,0,1,.89.54l.51,1H34.6Zm-24,22.09L7.4,26.34a16.32,16.32,0,0,1,12.85-6.22,16.54,16.54,0,0,1,9.87,3.28l-3,3.48a11.67,11.67,0,0,0-16,2.24ZM6.26,28,10,30.8a11.14,11.14,0,0,0-.82,8.56L5.29,42.28A15.58,15.58,0,0,1,6.26,28Zm0,16.09L10,41.26a11.59,11.59,0,0,0,10.27,6.17,11.23,11.23,0,0,0,6.58-1.84l3.52,3A15.48,15.48,0,0,1,20.25,52,16.3,16.3,0,0,1,6.23,44.07Zm24-4.69a1,1,0,0,0-.79-.39H22V35H35.51v1.56a15.72,15.72,0,0,1-3.73,10.65l-3.46-3a9.73,9.73,0,0,0,2.06-4A1,1,0,0,0,30.2,39.39ZM62,13a1,1,0,0,1-1,1H56a1,1,0,0,0,0,2h4V47a1,1,0,0,1-1,1H33.8a15.65,15.65,0,0,0,1.48-2.25A1,1,0,0,0,37,45.06v-2a1,1,0,0,0-.3-.71,20.49,20.49,0,0,0,.81-5.78V35a2,2,0,0,0-2-2H22a2,2,0,0,0-2,2v4a2,2,0,0,0,2,2h6c-1.25,2.91-3.91,4.44-7.77,4.44a9.38,9.38,0,1,1,0-18.75,9.62,9.62,0,0,1,5.66,1.82,2,2,0,0,0,2.64-.32l3.07-3.46a2,2,0,0,0,.49-1.52,2,2,0,0,0-.81-1.42,18.55,18.55,0,0,0-11-3.66A18.33,18.33,0,0,0,8,22.8V16H44a1,1,0,0,0,0-2H7a1,1,0,0,1-1-1V11a1,1,0,0,1,1-1H61a1,1,0,0,1,1,1Z"/><path fill="#8d6c9f" d="M41 42a1 1 0 0 0-1 1v2a1 1 0 0 0 2 0V43A1 1 0 0 0 41 42zM46 42a1 1 0 0 0-1 1v2a1 1 0 0 0 2 0V43A1 1 0 0 0 46 42zM51 42a1 1 0 0 0-1 1v2a1 1 0 0 0 2 0V43A1 1 0 0 0 51 42zM55 45a1 1 0 0 0 2 0V43a1 1 0 0 0-2 0zM52 14H48a1 1 0 0 0 0 2h4a1 1 0 0 0 0-2z"/></svg>